<?xml version="1.0" standalone="no"?>
<!DOCTYPE svg PUBLIC "-//W3C//DTD SVG 20010904//EN"
 "http://www.w3.org/TR/2001/REC-SVG-20010904/DTD/svg10.dtd">
<svg version="1.0" xmlns="http://www.w3.org/2000/svg"
 width="427.000000pt" height="427.000000pt" viewBox="0 0 427.000000 427.000000"
 preserveAspectRatio="xMidYMid meet">
<metadata>
Created by potrace 1.11, written by Peter Selinger 2001-2013
</metadata>
<g transform="translate(0.000000,427.000000) scale(0.100000,-0.100000)"
fill="#000000" stroke="none">
<path d="M3230 3808 c-19 -5 -46 -11 -60 -14 -14 -2 -34 -8 -45 -11 -11 -4
-24 -8 -30 -9 -5 -2 -41 -12 -80 -24 -38 -12 -77 -23 -85 -25 -8 -2 -49 -13
-90 -25 -41 -11 -83 -23 -93 -25 -9 -2 -21 -6 -26 -9 -5 -3 -26 -8 -47 -12
-22 -3 -42 -11 -46 -18 -4 -6 -8 -8 -8 -4 0 4 -30 -2 -67 -13 -38 -11 -75 -22
-83 -24 -9 -1 -121 -33 -250 -70 -129 -37 -242 -68 -250 -70 -8 -2 -15 -4 -15
-5 0 -1 -7 -3 -15 -5 -8 -2 -49 -14 -90 -25 -89 -25 -221 -61 -235 -64 -5 -1
-14 -4 -20 -7 -8 -5 -61 -20 -125 -34 -3 -1 -32 -9 -65 -19 -33 -10 -68 -20
-77 -22 -12 -4 -18 0 -18 10 0 8 -5 27 -12 41 -25 56 -19 55 -633 55 -614 0
-608 1 -633 -55 -9 -20 -12 -357 -12 -1406 0 -1500 -3 -1421 55 -1447 38 -17
3672 -17 3710 0 54 25 55 31 55 493 l0 425 43 1 c23 0 62 2 87 4 25 1 75 4
111 5 88 4 131 22 148 63 8 17 13 34 13 37 -2 23 -13 203 -17 275 -3 50 -7
124 -10 165 -9 131 -14 222 -20 325 -2 55 -7 127 -10 160 -2 33 -7 107 -10
165 -4 58 -8 132 -10 165 -2 33 -7 114 -10 180 -4 66 -11 122 -16 123 -5 2 -9
10 -9 17 0 7 -12 21 -27 30 -26 18 -102 18 -358 0 -33 -3 -94 -7 -136 -10
l-76 -5 -13 58 c-7 31 -17 62 -21 67 -4 6 -8 13 -8 18 -1 4 -1 8 -2 10 0 1 -2
9 -4 17 -1 8 -10 42 -19 75 -10 33 -18 65 -20 72 -1 7 -5 16 -9 19 -4 4 -7 15
-7 25 0 10 -7 38 -15 62 -8 24 -16 52 -18 63 -5 27 -27 101 -45 154 -24 67
-64 92 -122 78z"/>
</g>
</svg>
