<svg xmlns="http://www.w3.org/2000/svg" width="1300" height="834"><defs><linearGradient id="P" gradientUnits="userSpaceOnUse"/><linearGradient id="g1" x1="548.1" y1="824.4" x2="548.1" y2="138.4" href="#P"><stop stop-color="gray" stop-opacity=".3"/><stop offset=".5" stop-color="gray" stop-opacity=".1"/><stop offset="1" stop-color="gray" stop-opacity=".1"/></linearGradient></defs><style>.s0{opacity:.1;fill:#37474f}.s1{fill:none;stroke:#535461;stroke-width:2}.s2{fill:#37474f}.s4{fill:#b77b7f}.s5{fill:#dda2a6}.s6{opacity:.1;fill:#000}.s11{fill:#efb7b9}.s12{fill:#a36468}.s14{fill:#ffd037}</style><path class="s0" d="M474 30C503 4 549-2 591 0c131 7 249 70 351 142 37 26 74 54 98 89 49 73 34 174-34 233a494.82 494.82 0 0 1-55.6 37.3c-19.3 11.1-39.4 21-60.1 29.4-20.7 8.4-41.9 15.5-63.5 21-21.6 5.6-43.6 9.7-65.8 12.3-39 1.4-78.1 0-117-4.1-38.8-4.2-77.3-11.1-115.2-20.8-37.8-9.6-75-21.9-111.1-36.8-36.1-14.9-71.1-32.4-104.7-52.3-41-26-80-58-97-100s-6-95 36-120c18-10 39-15 59-19 30-7 61-13 88-26 29-14 62-40 56-69-6-32-10-60 19-86z"/><path class="s1" d="m948 562-2.4 5.2q-1.3 2.5-2.7 5-1.3 2.5-2.8 5-1.5 2.4-3.1 4.8-3.5 5.2-7.8 9.8-4.3 4.6-9.2 8.4-5 3.8-10.5 6.8-5.6 3-11.5 5c-38 12-63 57-63 57"/><path fill-rule="evenodd" class="s2" d="M972 553c-4 5-24 9-24 9s5-20 9-24c2.1-1.2 4.5-1.7 6.9-1.3 2.4.3 4.6 1.4 6.3 3.1 1.7 1.7 2.8 3.9 3.1 6.3.4 2.4-.1 4.8-1.3 6.9zm-11 36c-6 2-25-6-25-6s15-14 21-15c2.5.1 4.8 1.1 6.7 2.7 1.8 1.6 3.1 3.8 3.6 6.2.4 2.4 0 5-1.1 7.1-1.1 2.2-3 4-5.2 5zm-41 39c-6-2-19-17-19-17s20-5 26-3c3.4.2 6.6 2 8.5 4.9 1.9 2.9 2.3 6.5 1.2 9.7-1.2 3.3-3.8 5.8-7 6.8-3.3 1.1-6.9.6-9.7-1.4zm-38 23c-6-1-22-15-22-15s19-8 25-7c2.9.5 5.5 2 7.3 4.3 1.7 2.4 2.5 5.3 2.1 8.2-.4 2.9-1.9 5.5-4.2 7.3-2.4 1.7-5.3 2.5-8.2 2.1zm40.2-90.8c2.1-2 4.9-3.2 7.8-3.2 2.9 0 5.7 1.2 7.8 3.2 2.1 2.1 3.2 4.9 3.2 7.8 0 6-11 23-11 23s-11-17-11-23c0-2.9 1.2-5.7 3.2-7.8zM875.1 595c-.9-2.8-.7-5.8.6-8.4 1.3-2.6 3.6-4.6 6.3-5.5 2.8-1 5.8-.7 8.4.6 2.6 1.3 4.6 3.6 5.6 6.3 2 6-4 26-4 26s-15-14-17-19zm-38.9 32c-.4-2.9.3-5.8 2.1-8.1 1.8-2.4 4.4-3.9 7.3-4.3 2.9-.4 5.8.4 8.1 2.2 2.3 1.7 3.9 4.3 4.3 7.2 0 6-8 24-8 24s-13-16-14-21z"/><path fill-rule="evenodd" d="M972 553c-4 5-24 9-24 9s5-20 9-24c2.1-1.2 4.5-1.7 6.9-1.3 2.4.3 4.6 1.4 6.3 3.1 1.7 1.7 2.8 3.9 3.1 6.3.4 2.4-.1 4.8-1.3 6.9zm-11 36c-6 2-25-6-25-6s15-14 21-15c2.5.1 4.8 1.1 6.7 2.7 1.8 1.6 3.1 3.8 3.6 6.2.4 2.4 0 5-1.1 7.1-1.1 2.2-3 4-5.2 5zm-41 39c-6-2-19-17-19-17s20-5 26-3c3.4.2 6.6 2 8.5 4.9 1.9 2.9 2.3 6.5 1.2 9.7-1.2 3.3-3.8 5.8-7 6.8-3.3 1.1-6.9.6-9.7-1.4zm-38 23c-6-1-22-15-22-15s19-8 25-7c2.9.5 5.5 2 7.3 4.3 1.7 2.4 2.5 5.3 2.1 8.2-.4 2.9-1.9 5.5-4.2 7.3-2.4 1.7-5.3 2.5-8.2 2.1zm40.2-90.8c2.1-2 4.9-3.2 7.8-3.2 2.9 0 5.7 1.2 7.8 3.2 2.1 2.1 3.2 4.9 3.2 7.8 0 6-11 23-11 23s-11-17-11-23c0-2.9 1.2-5.7 3.2-7.8zM875.1 595c-.9-2.8-.7-5.8.6-8.4 1.3-2.6 3.6-4.6 6.3-5.5 2.8-1 5.8-.7 8.4.6 2.6 1.3 4.6 3.6 5.6 6.3 2 6-4 26-4 26s-15-14-17-19zm-38.9 32c-.4-2.9.3-5.8 2.1-8.1 1.8-2.4 4.4-3.9 7.3-4.3 2.9-.4 5.8.4 8.1 2.2 2.3 1.7 3.9 4.3 4.3 7.2 0 6-8 24-8 24s-13-16-14-21z" style="opacity:.3;fill:#000"/><path class="s1" d="M897 524q0 3-.1 6t-.3 6q-.3 3.1-.7 6-.4 3-.9 6-1.2 6-3.4 11.8-2.2 5.8-5.2 11.1-3.1 5.4-6.9 10.2-3.9 4.8-8.5 8.9c-30 27-35 78-35 78"/><path fill-rule="evenodd" class="s2" d="M915 507c-2 5-19 18-19 18s-3-21-1-26c.6-3.3 2.6-6.1 5.5-7.7 2.9-1.6 6.3-1.8 9.4-.6 3.1 1.2 5.4 3.8 6.4 6.9 1 3.2.5 6.6-1.3 9.4zm4 37c-5 4-25 5-25 5s8-19 13-22c2.2-.6 4.5-.6 6.7.2 2.2.7 4 2.1 5.4 4 1.3 1.9 2 4.1 2 6.4 0 2.3-.8 4.5-2.1 6.4zm-22 53c-6 0-24-9-24-9s17-12 22-13c2.9-.2 5.8.7 8 2.5 2.3 1.9 3.7 4.6 4 7.5.2 2.9-.7 5.8-2.5 8-1.9 2.3-4.6 3.7-7.5 4zm-25 36c-6 1-26-5-26-5s15-15 20-16c2.9-1.3 6.2-1.2 9 .2 2.9 1.3 5 3.8 5.8 6.9.9 3 .4 6.2-1.3 8.9-1.6 2.7-4.4 4.5-7.5 5zm.2-99.1c1.1-2.5 3.1-4.6 5.6-5.7 2.6-1.1 5.4-1.3 8-.4 2.7.9 4.9 2.7 6.2 5.2 3 5 0 26 0 26s-17-12-20-17c-.9-2.7-.9-5.5.2-8.1zm-34 41.6c-.3-3.4 1.1-6.7 3.7-9 2.6-2.2 6-3.1 9.4-2.5 3.3.7 6.2 2.9 7.7 6 4 4 8 24 8 24s-20-6-24-10c-2.8-2-4.6-5.1-4.8-8.5zm-19.8 44.9c.7-3 2.6-5.6 5.2-7.1 2.7-1.5 5.8-1.9 8.7-1 2.9.9 5.3 2.9 6.7 5.7 3 5 3 25 3 25s-19-9-22-14c-1.7-2.6-2.3-5.7-1.6-8.6z"/><path class="s0" d="M524.2 833.9c-65.8 0-118.9-8.9-118.9-19.9 0-11 53.1-19.9 118.9-19.9 65.8 0 118.9 8.9 118.9 19.9 0 11-53.1 19.9-118.9 19.9zM758.2 681c-65.8 0-118.9-8.9-118.9-19.9 0-11 53.1-19.9 118.9-19.9 65.8 0 118.9 8.9 118.9 19.9 0 11-53.1 19.9-118.9 19.9z"/><path class="s4" d="M766 398v4l-7 238h-11l5-238v-5z"/><path class="s5" d="M832 600H690l4-11h137z"/><path class="s6" d="M766 398v4h-13v-5z"/><path class="s4" d="M750 392h21v8h-21z"/><path class="s6" d="m698 589-1 11h-7l4-11z"/><path class="s5" d="M716 392v3l-28 277h-13l29-277 1-3z"/><path class="s6" d="M832 600h-9l-1-11h9z"/><path class="s5" d="M845 672h-13l-28-277v-3h11l1 3z"/><path d="M617 119h283v272H617z" style="fill:#fff"/><path class="s5" d="M764 28v66h-11V28c-.8-1.9-.6-4 .5-5.7 1.1-1.7 3-2.7 5-2.7s3.9 1 5 2.7c1.1 1.7 1.3 3.8.5 5.7z"/><path class="s6" d="M753 88h11v6h-11z"/><path class="s5" d="M768 93v21h-20V93q0-.6.2-1.1.3-.6.7-1 .4-.4 1-.7.5-.2 1.1-.2h14q.6 0 1.1.2.6.3 1 .7.4.4.7 1 .2.5.2 1.1z"/><path class="s6" d="M758.3 107.8c-2.3 0-4.2-1.9-4.2-4.2 0-2.3 1.9-4.2 4.2-4.2 2.3 0 4.2 1.9 4.2 4.2 0 2.3-1.9 4.2-4.2 4.2z"/><path class="s4" d="M758.3 106.9c-2.3 0-4.2-1.9-4.2-4.2 0-2.3 1.9-4.2 4.2-4.2 2.3 0 4.2 1.9 4.2 4.2 0 2.3-1.9 4.2-4.2 4.2z"/><path class="s6" d="M748 112h20v2h-20zm-8 3h36v6h-36z"/><path class="s5" d="M740 113h36v6h-36z"/><path class="s6" d="M686 384h150q1.4 0 2.7.5 1.3.6 2.2 1.6 1 .9 1.6 2.2.5 1.3.5 2.7v1H679v-1q0-1.4.5-2.7.6-1.3 1.6-2.2.9-1 2.2-1.6 1.3-.5 2.7-.5zm19 8h11v3h-12zm45 0h21v3h-21zm66 3h-12v-3h11z"/><path class="s5" d="M686 386h150q1.3 0 2.5.4 1.2.5 2.1 1.3 1 .8 1.6 1.9.6 1.1.8 2.4v2H679v-2q.2-1.3.8-2.4.6-1.1 1.6-1.9.9-.8 2.1-1.3 1.2-.4 2.5-.4z"/><path fill-rule="evenodd" d="M662 283c-2 8-17 11-25 12q-.5.5-.9 1.1l-1 1-1 1q-.6.4-1.1.9h-5l-39 1s-13-2-12 12-5 31-5 31v12c1 2-1 10-1 11 0 0-2 5 0 7 3 1 6.6 12.4 7 13q.6.9 1 1.8.5 1 .7 2 .3 1 .3 2.1.1 1.1 0 2.1c0 5 3 16 10 23s16 22 16 22-1 11-10 18q.7 8.7.7 17.4t-.8 17.4q-.7 8.6-2.2 17.2-1.5 8.6-3.7 17c-8 19-15 79-16 86l-1 36-1 70c-1 9-7 31-7 31s-3 19-1 25l-2 18q.1-.1.3-.2.1-.2.2-.3.1-.1.3-.2.1-.2.2-.3c6-5 14 0 12 7v2c-3 7-6 6-18 17q-2 2.3-4.6 3.9-2.6 1.6-5.5 2.6-2.9.9-5.9 1-3 .2-6-.5-.5-.2-.8-.5-.4-.3-.7-.7-.3-.4-.4-.8-.1-.5-.1-1l1-19v-2l-1-1s-4-21 0-26-2-21-2-21l3-87c1-4-3-15-6-25s2-48 3-55 0-40-1-46 1-34 1-34c-4-13-8-1-8-1l-4 35-4 73s0 23-3 29-6 22-6 22l2 82s-1 18 1 24l-1 14c5-3 12 2 10 8v2c-2 7-6 6-18 17q-2 2.3-4.6 3.9-2.6 1.6-5.5 2.6-2.9.9-5.9 1-3 .2-6-.5-.5-.2-.8-.5-.4-.3-.7-.7-.3-.4-.4-.8-.1-.5-.1-1l1-17-3-4q.2.1.5.3.2.1.5.2.2.2.5.3.2.1.5.2l-.8-1-.8-1q-.3-.5-.7-1-.4-.5-.7-1l3-6c1 0 0-12-2-14s0-17 0-17l-4-30c-3-16-3-77-1-81s3-22 3-22-1-9 1-17-6-39-6-42-2-24-4-26-2-7-2-7l-4-18c-3-10-1-29 1-39q-.3-.9-.5-1.7-.3-.9-.5-1.8-.3-.9-.5-1.7-.3-.9-.5-1.8.3-.6.4-1.2l.4-1.2q.1-.7.2-1.3V459q-1-1.3-1.9-2.6-1-1.4-1.8-2.7-.9-1.4-1.7-2.8-.9-1.5-1.6-2.9c-3-6-6-31-6-31l-1-33h-2c-10-3-6-14-5-16l3-23-1-20 2-20s0-38 23-43q.1-1.6 0-3.3 0-1.6-.1-3.2-.2-1.7-.4-3.3-.2-1.6-.5-3.2v2q-.3-1.2-.6-2.3-.3-1.1-.7-2.3l-.8-2.2q-.4-1.1-.9-2.2c-3-9-9-18-7-26q.2-.7.4-1.3.2-.6.4-1.3l.6-1.2.6-1.2c3-8 11-13 17-20 8-8 13-18 15-29l3-13c19-28 80 5 93 21 11 12 14 30 3 43v1l40 26 27 20c2 1 12 12 10 23zM467 385l1 4q.7-.2 1.3-.6.7-.4 1.2-.9t.9-1.2q.4-.6.6-1.3.2-.7.3-1.5.1-.7.1-1.5t-.1-1.5q-.1-.8-.3-1.5l-2-1v7zm146.9-121.3.8-.4q.4-.3.7-.6.3-.3.6-.7c-5-3-14-10-16-14-3-4-26-19-26-19 0 10 6 19 9 28 5 1 11 2 12 4l7 2 11 1q.5-.1.9-.3z" style="fill:url(#g1)"/><path d="M575 798v2c-2 7-6 6-17 17-1.4 1.6-3 3-4.7 4.2-1.8 1.2-3.7 2.1-5.8 2.7-2 .6-4.1 1-6.2 1-2.1 0-4.3-.3-6.3-.9q-.5-.2-.8-.5-.4-.3-.7-.7-.3-.4-.4-.8-.1-.5-.1-1l2-19v-9s18 5 27-1q.1-.1.3-.2.1-.2.2-.3.1-.1.3-.2.1-.2.2-.3c1-1.4 2.5-2.3 4.2-2.6 1.7-.4 3.4-.1 4.9.8 1.5.9 2.6 2.2 3.1 3.9.5 1.6.5 3.3-.2 4.9zm-56-7v2c-2 7-6 6-17 17-1.4 1.6-3 3-4.7 4.2-1.8 1.2-3.7 2.1-5.8 2.7-2 .6-4.1 1-6.2 1-2.1 0-4.3-.3-6.3-.9q-.5-.2-.8-.5-.4-.3-.7-.7-.3-.4-.4-.8-.1-.5-.1-1l2-19v-9s18 5 27-1q.1-.1.3-.2.1-.2.2-.3.1-.1.3-.2.1-.2.2-.3c1-1.4 2.5-2.3 4.2-2.6 1.7-.4 3.4-.1 4.9.8 1.5.9 2.6 2.2 3.1 3.9.5 1.6.5 3.3-.2 4.9z" style="fill:#67647e"/><path class="s6" d="m501 794 1 10c-11 10-23-5-26-10 9 4 25 0 25 0zm60 4 1-1c-9 14-23 8-27 5v-9s18 5 27-1z"/><path d="M589 529c-7 18-14 78-15 85v35l-2 70c0 9-7 31-7 31s-2 18-1 24-3 22-3 22l1-1c-11 17-29 4-29 4s-4-20 1-25-2-21-2-21l3-87c1-4-3-15-6-25s2-48 3-55 0-38-1-45 1-33 1-33c-5-14-8-2-8-2l-4 35-4 73s1 22-3 28-6 22-6 22l2 82 1 23c1 6-3 24-3 24-12 29-33-3-33-3s1-5 3-5-1-13-2-15v-17l-4-29q-1-12.9-1.3-25.8-.4-12.9 0-25.8t1.5-25.7q1-12.9 2.8-25.7c1.2-8.5-2-10 1-17s-6-37-6-41l-4-26-2-6s0-5-4-18c-3-10-1-29 0-39l1-6s128-21 133-16c2 1 2 5 3 10 1 18-1 53-7 67z" style="fill:#444053"/><path class="s6" d="M541 629s15 2 20 1-20-1-20-1zm1 9s19 3 20 2-20-2-20-2zm-60-4 16 3z"/><path class="s11" d="m468 383 3 21-9 62-10-15c-3-6-6-31-6-31 1-6-1-37-1-37zM537.7 240.6c-19.1 0-34.5-15.4-34.5-34.5s15.4-34.5 34.5-34.5 34.5 15.4 34.5 34.5-15.4 34.5-34.5 34.5z"/><path class="s11" d="M554 224c-3 5 13 50 11 50s-78-11-67-21 22-31 22-31 37-3 34 2z"/><path class="s6" d="M596 462q-.7.5-1.4.9-.7.5-1.5.8-.7.4-1.5.7l-1.6.6c-13 6-28 13-38 10s-32 0-32 0-43-3-52-1h-9l1-6s128-21 133-16c2 1 2 5 3 10z"/><path class="s12" d="M605 442s-1 15-15 21-28 12-38 9-32 0-32 0-43-3-52-1-13-1-11-5 3-16 3-22-3-27 0-31 5-19 10-21q.6-.3 1.1-.7l.8-1q.4-.5.7-1.1.3-.6.4-1.2l.2-1.2q.1-.7.1-1.3 0-.6-.1-1.3l-.2-1.2c-.1-.4-1-1-2-2-3-3-8-8-7-10 3-2 0-18 0-18s-5-12-3-16-19-28-19-28 0-41 25-43c0 0 17 1 19-7s16-12 16-12l32 7s27 6 33 2 9 5 9 5 17 1 19 4-6 39-6 39-13-1-12 12-5 31-5 31v12c1 1-1 9-1 10s-2 5 0 7h.2q.2.1.3.1.1 0 .3-.1h.2l6 13q.6.9 1 1.8.5 1 .7 2 .3 1 .3 2.1.1 1.1 0 2.1c0 5 2 17 10 23s15 22 15 22z"/><path class="s12" d="M472 373v15s-19 2-29-1-6-13-5-16l3-22-1-20c-1-5 2-20 2-20l2-3 21 8z"/><path class="s6" d="m472 374-1 14s-18 2-28-1-6-13-5-16z"/><path fill-rule="evenodd" class="s6" d="m473 388 .2-1.2q.1-.7.1-1.3 0-.6-.1-1.3l-.2-1.2c-.1-.4-1-1-2-2 16-2 79-11 100-12s-2 5 0 7zm100 11s4 22-11 30c0 0 9-11 11-30zm-95 30s35-6 42-1-42 1-42 1zm82-109c-4-5 1-27 1-27s3 32-1 27zm-100-45s5 8 2 17-2-17-2-17zm-11 72s7 4 5 10-5-10-5-10zm0-17s6 3 6 8-6-8-6-8zm86 179s1.5.2 3.9.3q-2.2 0-3.9-.3zm3.9.3c13.4.4 40.1-5.3 40.1-5.3-5.6 7.2-30.3 6.1-40.1 5.3zM472 507s2.5.6 6.3 1.3c-2.4-.3-4.5-.8-6.3-1.3zm6.3 1.3c15.3 2.2 40.7.7 40.7.7-6 5.2-29.3 1.5-40.7-.7zM492 535c-9 2-17-7-17-7s26 5 17 7zm46-14h24z"/><path d="M582 175c12 13 14 34-1 46l-6 5q-.5.9-.8 1.9-.3 1-.4 2-.1 1-.1 2.1.1 1 .3 2c1 11 8 20 11 31s3 23-7 31c-5 4-13 6-16 11-2 3-2 6-2 9 0 8 4 16 5 25s1 18-3 26-14 14-26 14c-5 0-11-2-15 0l-7 7c-5 6-16 4-24 2l-8-4c-6-4-5-10-5-15q.3-3.8.3-7.5 0-3.8-.3-7.6-.2-3.7-.7-7.5-.5-3.7-1.3-7.4c0-2-1-5-4-7l-8-1c-8-3-9-11-8-17 3-24 15-48 6-70-3-9-9-17-7-26 2-10 12-17 19-24 8-8 13-18 14-29 1-4 1-8 4-12 18-28 78 4 91 20z" style="fill:#e3787d"/><path class="s6" d="M462.7 252.7q-.2-1.1-.5-2.2-.2-1.2-.5-2.3-.3-1.1-.7-2.2c-3-8-9-17-7-26q0-.6.1-1.3l.2-1.2q.2-.7.3-1.3l.4-1.2 6 13c3 9 3 18 2 27q-.1-1.1-.3-2.3zM477 355q-.2-1.6-.4-3.3l-.4-3.2q-.3-1.7-.6-3.3l-.6-3.2c-1-3-2-6-5-7-2-2-5-1-7-2-8-2-10-11-9-17l2-7q.5 1.1 1.2 2.1t1.6 1.8q.9.7 2 1.3 1 .5 2.2.8l7 2c3 1 4 4 5 7q.7 3.6 1.2 7.2t.8 7.2q.2 3.7.2 7.3 0 3.7-.2 7.3zm85.6-7.5.6-1.4.4-1.6q.2-.7.4-1.5c2 8 2 17-2 24-5 8-15 15-26 14-5 0-12-2-16 1l-6 7c-6 5-16 3-24 1l-9-3c-5-4-5-11-4-16v-9q.1 1 .5 2 .3 1 .8 1.9.5.9 1.2 1.7.7.8 1.5 1.4l9 3c8 2 18 4 24-1l6-7c4-3 11-1 16-1 11 1 21-6 26-14q.3-.7.6-1.5zm21.3-147.3q1.4-1.4 2.5-3.1 1.1-1.6 2-3.4 1-1.8 1.6-3.7c3 11 1 23-9 31q-.8.5-1.6 1.1-.8.6-1.5 1.3-.8.6-1.5 1.2L575 226q-.4-1.2-.7-2.4-.4-1.3-.6-2.5-.3-1.3-.4-2.6-.2-1.2-.3-2.5 0-.9.1-1.8.1-1 .4-1.9.2-.8.6-1.7.4-.8.9-1.6l6-6q1.5-1.3 2.9-2.8zm-3.6 75.7q1.1-1.1 1.9-2.4.9-1.3 1.6-2.6.7-1.4 1.2-2.9c3 10 2 21-7 28-5 4-13 6-16 12q-.1.1-.3.2-.1.2-.2.3-.1.1-.3.2-.1.2-.2.3-.3-1.4-.4-2.7l-.4-2.8q-.1-1.4-.1-2.7-.1-1.4-.1-2.8c0-3 0-6 2-8 3-6 11-8 16-12q1.2-1 2.3-2.1z"/><path class="s11" d="M617 268s-16-10-18-15-25-19-25-19-16-27-12-48 23 33 23 33l39 25 27 20c2 1 11 12 9 23s-28 12-28 12z"/><path class="s12" d="M646 282c-6 15-14 21-14 21h-4l-39 1-5-12 7-27h4l7 3h10q.1.1.2.1h.6q.1 0 .2-.1l3-2s36 0 30 16z"/><path class="s6" d="M646 282c-6 15-14 21-14 21h-4l9-21c2-3-15-10-24-14l3-2s36 0 30 16z"/><path class="s0" d="M240.8 771.7c-24.4 0-44.2-3.8-44.2-8.6s19.8-8.6 44.2-8.6c24.4 0 44.2 3.8 44.2 8.6s-19.8 8.6-44.2 8.6zM977.3 712.4c-17.8 0-32.2-2.8-32.2-6.3s14.4-6.3 32.2-6.3c17.8 0 32.2 2.8 32.2 6.3s-14.4 6.3-32.2 6.3zM1116.8 737.9c-17.8 0-32.2-2.8-32.2-6.3s14.4-6.3 32.2-6.3c17.8 0 32.2 2.8 32.2 6.3s-14.4 6.3-32.2 6.3zM900.8 790.4c-17.8 0-32.2-2.8-32.2-6.3s14.4-6.3 32.2-6.3c17.8 0 32.2 2.8 32.2 6.3s-14.4 6.3-32.2 6.3z"/><path class="s2" d="M292 555c-13 1-29 27-29 27-3-9 5-21 16-35s4-24 4-24c14 16 22 31 9 32z"/><path class="s6" d="M292 555c-13 1-29 27.1-29 27v-1c3-5 17-25 28-26 12 0 6-14-7-29l-.2-.8q-.1-.4-.2-.7-.1-.4-.3-.8-.1-.3-.3-.7c14 16 22 31 9 32z"/><path class="s14" d="m296 535-1 6-1-6c0-4 1-1 1-1s1-2 1 1zm5 4-6 2 5-3h2c0 1 2 0-1 1z"/><path class="s2" d="M244 523s-7 10 4 24 19 26 15 35c0 0-16-26-29-27s-4-16 10-32z"/><path class="s6" d="M244 523q-.2.4-.3.7-.2.4-.3.8-.1.3-.2.7l-.2.8c-13 15-20 29-7 29 11 1 25 21 28 26q-.1.1-.2.3-.2.1-.3.2-.1.1-.2.3-.2.1-.3.2c-.1.1-16-26-29-27s-4-16 10-32z"/><path class="s14" d="M232 534s1-3 1 1l-1 6-1-6c0-3 1-1 1-1zm-7 4h2l5 3-6-2c-3-1-1 0-1-1z"/><path class="s0" d="M263.5 654.7c-41.9 0-75.7-5.2-75.7-11.6 0-6.4 33.8-11.6 75.7-11.6 41.9 0 75.7 5.2 75.7 11.6 0 6.4-33.8 11.6-75.7 11.6z"/><path d="M302 570v7l-1 1v6l-1 5-6 47c0 4-7 8-15 8h-31c-8 0-15-4-15-8l-6-47-1-5v-6l-1-1v-7c-1-3 3-5 8-5h61c5 0 9 2 8 5z" style="fill:#65617d"/><path d="M302 573v4h-77v-5h77zm-1 5v5h-75v-5zm0 6-1 5h-73l-1-5z" style="fill:#9d9cb5"/><path class="s0" d="M330 156c-17.4 0-31.5-14.1-31.5-31.5S312.6 93 330 93s31.5 14.1 31.5 31.5S347.4 156 330 156zM264 69c-10.8 0-19.5-8.7-19.5-19.5S253.2 30 264 30s19.5 8.7 19.5 19.5S274.8 69 264 69zM162 105c-6.6 0-12-5.4-12-12s5.4-12 12-12 12 5.4 12 12-5.4 12-12 12z"/></svg>
