<svg data-name="Layer 1" xmlns="http://www.w3.org/2000/svg" width="999" height="834"><defs><linearGradient id="a" x1="499.1" y1="857.4" x2="499.1" y2="171.4" gradientUnits="userSpaceOnUse"><stop offset="0" stop-color="gray" stop-opacity=".3"/><stop offset=".5" stop-color="gray" stop-opacity=".1"/><stop offset="1" stop-color="gray" stop-opacity=".1"/></linearGradient></defs><path d="M324 30C353 4 399-2 441 0c131 7 249 70 351 142 37 26 74 54 98 89 49 73 34 174-34 233a494 494 0 0 1-245 100 822 822 0 0 1-448-114c-41-26-80-58-97-100s-6-95 36-120c18-10 39-15 59-19 30-7 61-13 88-26 29-14 62-40 56-69-6-32-10-60 19-86z" fill="#37474f" opacity=".1"/><path d="M685 669s25-45 63-57a77 77 0 0 0 39-30 130 130 0 0 0 11-20" fill="none" stroke="#535461" stroke-miterlimit="10" stroke-width="2"/><path d="M822 553c-4 5-24 9-24 9s5-20 9-24a11 11 0 0 1 15 15zm-11 36c-6 2-25-6-25-6s15-14 21-15a11 11 0 0 1 4 21zm-41 39c-6-2-19-17-19-17s20-5 26-3a11 11 0 1 1-7 20zm-38 23c-6-1-22-15-22-15s19-8 25-7a11 11 0 1 1-3 22zm37-83c0 6 11 23 11 23s11-17 11-23a11 11 0 1 0-22 0zm-44 27c2 5 17 19 17 19s6-20 4-26a11 11 0 0 0-21 7zm-39 32c1 5 14 21 14 21s8-18 8-24a11 11 0 0 0-22 3z" fill="#37474f"/><path d="M822 553c-4 5-24 9-24 9s5-20 9-24a11 11 0 0 1 15 15zm-11 36c-6 2-25-6-25-6s15-14 21-15a11 11 0 0 1 4 21zm-41 39c-6-2-19-17-19-17s20-5 26-3a11 11 0 1 1-7 20zm-38 23c-6-1-22-15-22-15s19-8 25-7a11 11 0 1 1-3 22zm37-83c0 6 11 23 11 23s11-17 11-23a11 11 0 1 0-22 0zm-44 27c2 5 17 19 17 19s6-20 4-26a11 11 0 0 0-21 7zm-39 32c1 5 14 21 14 21s8-18 8-24a11 11 0 0 0-22 3z" opacity=".3"/><path d="M686 668s5-51 35-78a77 77 0 0 0 24-42 129 129 0 0 0 2-24" fill="none" stroke="#535461" stroke-miterlimit="10" stroke-width="2"/><path d="M765 507c-2 5-19 18-19 18s-3-21-1-26a11 11 0 1 1 20 8zm4 37c-5 4-25 5-25 5s8-19 13-22a11 11 0 0 1 12 17zm-22 53c-6 0-24-9-24-9s17-12 22-13a11 11 0 0 1 2 22zm-25 36c-6 1-26-5-26-5s15-15 20-16a11 11 0 1 1 6 21zm0-91c3 5 20 17 20 17s3-21 0-26a11 11 0 0 0-20 9zm-29 42c4 4 24 10 24 10s-4-20-8-24a11 11 0 1 0-16 14zm-23 45c3 5 22 14 22 14s0-20-3-25a11 11 0 1 0-19 11z" fill="#37474f"/><ellipse cx="374.2" cy="814" rx="118.9" ry="19.9" fill="#37474f" opacity=".1"/><ellipse cx="608.2" cy="661.1" rx="118.9" ry="19.9" fill="#37474f" opacity=".1"/><path fill="#b77b7f" d="M616 398v4l-7 238h-11l5-238v-5l13 1z"/><path fill="#dda2a6" d="M682 600H540l4-11h137l1 11z"/><path opacity=".1" d="M616 398v4h-13v-5l13 1z"/><path fill="#b77b7f" d="M600 392h21v8h-21z"/><path opacity=".1" d="m548 589-1 11h-7l4-11h4z"/><path fill="#dda2a6" d="M566 392v3l-28 277h-13l29-277 1-3h11z"/><path opacity=".1" d="M682 600h-9l-1-11h9l1 11z"/><path fill="#dda2a6" d="M695 672h-13l-28-277v-3h11l1 3 29 277z"/><path fill="#fff" d="M467 119h283v272H467z"/><path d="M614 28v66h-11V28a6 6 0 1 1 11 0z" fill="#dda2a6"/><path opacity=".1" d="M603 88h11v6h-11z"/><path d="M618 93v21h-20V93a3 3 0 0 1 3-3h14a3 3 0 0 1 3 3z" fill="#dda2a6"/><circle cx="608.3" cy="103.6" r="4.2" opacity=".1"/><circle cx="608.3" cy="102.7" r="4.2" fill="#b77b7f"/><path opacity=".1" d="M598 112h20v2h-20zm-8 3h36v6h-36z"/><path fill="#dda2a6" d="M590 113h36v6h-36z"/><path d="M536 384h150a7 7 0 0 1 7 7v1H529v-1a7 7 0 0 1 7-7zm19 8h11v3h-12l1-3zm45 0h21v3h-21zm66 3h-12v-3h11l1 3z" opacity=".1"/><path d="M536 386h150a7 7 0 0 1 7 6v2H529v-2a7 7 0 0 1 7-6z" fill="#dda2a6"/><path d="m603 293-27-20-40-26v-1c11-13 8-31-3-43-13-16-74-49-93-21l-3 13c-2 11-7 21-15 29-6 7-14 12-17 20a18 18 0 0 0-2 5c-2 8 4 17 7 26a48 48 0 0 1 3 9v-2a58 58 0 0 1 1 13c-23 5-23 43-23 43l-2 20 1 20-3 23c-1 2-5 13 5 16h2l1 33s3 25 6 31a73 73 0 0 0 7 11 12 12 0 0 1-1 5 575 575 0 0 0 2 7c-2 10-4 29-1 39l4 18s0 5 2 7 4 23 4 26 8 34 6 42-1 17-1 17-1 18-3 22-2 65 1 81l4 30s-2 15 0 17 3 14 2 14l-3 6a50 50 0 0 0 3 4 17 17 0 0 1-2-1l3 4-1 17a3 3 0 0 0 2 3 23 23 0 0 0 22-7c12-11 16-10 18-17v-2c2-6-5-11-10-8l1-14c-2-6-1-24-1-24l-2-82s3-16 6-22 3-29 3-29l4-73 4-35s4-12 8 1c0 0-2 28-1 34s2 39 1 46-6 45-3 55 7 21 6 25l-3 87s6 16 2 21 0 26 0 26l1 1v2l-1 19a3 3 0 0 0 2 3 23 23 0 0 0 22-7c12-11 15-10 18-17v-2c2-7-6-12-12-7a9 9 0 0 1-1 1l2-18c-2-6 1-25 1-25s6-22 7-31l1-70 1-36c1-7 8-67 16-86a205 205 0 0 0 6-69c9-7 10-18 10-18s-9-15-16-22-10-18-10-23a12 12 0 0 0-2-8s-4-12-7-13c-2-2 0-7 0-7 0-1 2-9 1-11v-12s6-17 5-31 12-12 12-12l39-1h5a32 32 0 0 0 4-4c8-1 23-4 25-12 2-11-8-22-10-23zM421 418v-7l2 1a11 11 0 0 1 0 6 6 6 0 0 1-4 4l-1-4zm143-121-11-1-7-2c-1-2-7-3-12-4-3-9-9-18-9-28v-1 1s23 15 26 19c2 4 11 11 16 14a5 5 0 0 1-3 2z" transform="translate(-101 -33)" fill="url(#a)"/><path d="M425 798v2c-2 7-6 6-17 17a22 22 0 0 1-23 7 3 3 0 0 1-2-3l2-19v-9s18 5 27-1a11 11 0 0 0 1-1 7 7 0 0 1 12 7zm-56-7v2c-2 7-6 6-17 17a22 22 0 0 1-23 7 3 3 0 0 1-2-3l2-19v-9s18 5 27-1a11 11 0 0 0 1-1 7 7 0 0 1 12 7z" fill="#67647e"/><path d="m351 794 1 10c-11 10-23-5-26-10 9 4 25 0 25 0zm60 4 1-1c-9 14-23 8-27 5v-9s18 5 27-1l-1 6z" opacity=".1"/><path d="M439 529c-7 18-14 78-15 85v35l-2 70c0 9-7 31-7 31s-2 18-1 24-3 22-3 22l1-1c-11 17-29 4-29 4s-4-20 1-25-2-21-2-21l3-87c1-4-3-15-6-25s2-48 3-55 0-38-1-45 1-33 1-33c-5-14-8-2-8-2l-4 35-4 73s1 22-3 28-6 22-6 22l2 82 1 23c1 6-3 24-3 24-12 29-33-3-33-3s1-5 3-5-1-13-2-15v-17l-4-29a479 479 0 0 1 3-103s-2-10 1-17-6-37-6-41l-4-26-2-6s0-5-4-18c-3-10-1-29 0-39l1-6s128-21 133-16c2 1 2 5 3 10 1 18-1 53-7 67z" fill="#444053"/><path d="M391 629s15 2 20 1-20-1-20-1zm1 9s19 3 20 2-20-2-20-2zm-60-4 16 3-16-3z" opacity=".1"/><path d="M295 383s2 31 1 37c0 0 3 25 6 31l10 15 9-62-3-21z" fill="#efb7b9"/><circle cx="387.7" cy="206.1" r="34.5" fill="#efb7b9"/><path d="M370 222s-11 21-22 31 65 21 67 21-14-45-11-50-34-2-34-2z" fill="#efb7b9"/><path d="M446 462a22 22 0 0 1-6 3c-13 6-28 13-38 10s-32 0-32 0-43-3-52-1h-9l1-6s128-21 133-16c2 1 2 5 3 10z" opacity=".1"/><path d="M455 442s-1 15-15 21-28 12-38 9-32 0-32 0-43-3-52-1-13-1-11-5 3-16 3-22-3-27 0-31 5-19 10-21a6 6 0 0 0 3-4 11 11 0 0 0 0-5s-1-1-2-2c-3-3-8-8-7-10 3-2 0-18 0-18s-5-12-3-16-19-28-19-28 0-41 25-43c0 0 17 1 19-7s16-12 16-12l32 7s27 6 33 2 9 5 9 5 17 1 19 4-6 39-6 39-13-1-12 12-5 31-5 31v12c1 1-1 9-1 10s-2 5 0 7a2 2 0 0 0 1 0l6 13a12 12 0 0 1 2 8c0 5 2 17 10 23s15 22 15 22z" fill="#a36468"/><path d="M322 373v15s-19 2-29-1-6-13-5-16l3-22-1-20c-1-5 2-20 2-20l2-3 21 8z" fill="#a36468"/><path d="m322 374-1 14s-18 2-28-1-6-13-5-16z" opacity=".1"/><path d="M323 388a11 11 0 0 0 0-5s-1-1-2-2c16-2 79-11 100-12s-2 5 0 7zm100 11s4 22-11 30c0 0 9-11 11-30zm-95 30s35-6 42-1-42 1-42 1zm83-136s-5 22-1 27 1-27 1-27zm-101-18s5 8 2 17-2-17-2-17zm-11 72s7 4 5 10-5-10-5-10zm0-17s6 3 6 8-6-8-6-8zm86 179s37 4 44-5c0 0-33 7-44 5zm-63-2s39 9 47 2c0 0-34 2-47-2zm66 14h24-24zm-63 7s8 9 17 7-17-7-17-7z" opacity=".1"/><path d="M341 155c-3 4-3 8-4 12-1 11-6 21-14 29-7 7-17 14-19 24-2 9 4 17 7 26 9 22-3 46-6 70-1 6 0 14 8 17l8 1c3 2 4 5 4 7a109 109 0 0 1 2 30c0 5-1 11 5 15l8 4c8 2 19 4 24-2l7-7c4-2 10 0 15 0 12 0 22-6 26-14s4-17 3-26-5-17-5-25c0-3 0-6 2-9 3-5 11-7 16-11 10-8 10-20 7-31s-10-20-11-31a12 12 0 0 1 1-8l6-5c15-12 13-33 1-46-13-16-73-48-91-20z" fill="#e3787d"/><path d="M313 255c1-9 1-18-2-27l-6-13a19 19 0 0 0-1 5c-2 9 4 18 7 26a47 47 0 0 1 2 9zm14 98a109 109 0 0 0-2-29c-1-3-2-6-5-7l-7-2a10 10 0 0 1-7-6l-2 7c-1 6 1 15 9 17 2 1 5 0 7 2 3 1 4 4 5 7a111 111 0 0 1 2 13v-2zm85-4c-5 8-15 15-26 14-5 0-12-2-16 1l-6 7c-6 5-16 3-24 1l-9-3a11 11 0 0 1-4-7v9c-1 5-1 12 4 16l9 3c8 2 18 4 24-1l6-7c4-3 11-1 16-1 11 1 21-6 26-14 4-7 4-16 2-24a27 27 0 0 1-2 6zm19-146-6 6a12 12 0 0 0-2 7 40 40 0 0 0 2 10 40 40 0 0 1 6-5c10-8 12-20 9-31a29 29 0 0 1-9 13zm-3 75c-5 4-13 6-16 12-2 2-2 5-2 8a60 60 0 0 0 1 11 10 10 0 0 1 1-1c3-6 11-8 16-12 9-7 10-18 7-28a21 21 0 0 1-7 10z" opacity=".1"/><path d="M482 299s26-1 28-12-7-22-9-23l-27-20-39-25s-19-54-23-33 12 48 12 48 23 14 25 19 18 15 18 15z" fill="#efb7b9"/><path d="M496 282c-6 15-14 21-14 21h-4l-39 1-5-12 7-27h4l7 3h10a1 1 0 0 0 1 0l3-2s36 0 30 16z" fill="#a36468"/><path d="M496 282c-6 15-14 21-14 21h-4l9-21c2-3-15-10-24-14l3-2s36 0 30 16z" opacity=".1"/><ellipse cx="90.8" cy="763.1" rx="44.2" ry="8.6" fill="#37474f" opacity=".1"/><ellipse cx="827.3" cy="706.1" rx="32.2" ry="6.3" fill="#37474f" opacity=".1"/><ellipse cx="966.8" cy="731.6" rx="32.2" ry="6.3" fill="#37474f" opacity=".1"/><ellipse cx="750.8" cy="784.1" rx="32.2" ry="6.3" fill="#37474f" opacity=".1"/><path d="M133 523s7 10-4 24-19 26-16 35c0 0 16-26 29-27s5-16-9-32z" fill="#37474f"/><path d="M133 523a12 12 0 0 1 1 3c13 15 19 29 7 29-11 1-25 21-28 26a9 9 0 0 0 0 1s16-26 29-27 5-16-9-32z" opacity=".1"/><path d="m146 535-1 6-1-6c0-4 1-1 1-1s1-2 1 1zm5 4-6 2 5-3h2c0 1 2 0-1 1z" fill="#ffd037"/><path d="M94 523s-7 10 4 24 19 26 15 35c0 0-16-26-29-27s-4-16 10-32z" fill="#37474f"/><path d="M94 523a12 12 0 0 0-1 3c-13 15-20 29-7 29 11 1 25 21 28 26a11 11 0 0 1-1 1s-16-26-29-27-4-16 10-32z" opacity=".1"/><path d="m81 535 1 6 1-6c0-4-1-1-1-1s-1-2-1 1zm-5 4 6 2-5-3h-2c0 1-2 0 1 1z" fill="#ffd037"/><ellipse cx="113.5" cy="643.1" rx="75.7" ry="11.6" fill="#37474f" opacity=".1"/><path d="M152 570v7l-1 1v6l-1 5-6 47c0 4-7 8-15 8H98c-8 0-15-4-15-8l-6-47-1-5v-6l-1-1v-7c-1-3 3-5 8-5h61c5 0 9 2 8 5z" fill="#65617d"/><path fill="#9d9cb5" d="M152 573v4H75v-5h77zm-1 5v5H76v-5h75zm0 6-1 5H77l-1-5h75z"/><circle cx="180" cy="124.5" r="31.5" fill="#37474f" opacity=".1"/><circle cx="114" cy="49.5" r="19.5" fill="#37474f" opacity=".1"/><circle cx="12" cy="93" r="12" fill="#37474f" opacity=".1"/></svg>